<?xml version="1.0" standalone="no"?>
<!DOCTYPE svg PUBLIC "-//W3C//DTD SVG 20010904//EN"
 "http://www.w3.org/TR/2001/REC-SVG-20010904/DTD/svg10.dtd">
<svg version="1.0" xmlns="http://www.w3.org/2000/svg"
 width="960.000000pt" height="960.000000pt" viewBox="0 0 960.000000 960.000000"
 preserveAspectRatio="xMidYMid meet">
<metadata>
Created by potrace 1.11, written by Peter Selinger 2001-2013
</metadata>
<g transform="translate(0.000000,960.000000) scale(0.100000,-0.100000)"
fill="#000000" stroke="none">
<path d="M4876 7466 c7 -19 -7 -21 -25 -3 -9 7 -15 8 -17 2 -2 -6 -22 -9 -43
-7 -25 3 -48 -2 -65 -13 -16 -10 -26 -13 -26 -6 0 6 -7 11 -15 11 -17 0 -20
-16 -4 -25 6 -4 8 -13 5 -20 -2 -7 5 -16 17 -20 l22 -6 -22 -9 c-30 -12 -29
-21 5 -53 l28 -27 77 78 c75 76 87 95 67 107 -6 3 -7 -1 -4 -9z"/>
<path d="M4622 7404 c26 -26 50 -45 54 -41 4 3 -8 18 -25 33 -18 14 -29 29
-26 32 3 3 12 -3 19 -14 8 -10 18 -16 21 -12 10 10 -23 41 -38 35 -6 -2 -21 0
-32 5 -11 6 1 -11 27 -38z"/>
<path d="M5219 7117 c8 -9 11 -21 7 -24 -4 -4 -10 -3 -14 3 -10 17 -110 9
-131 -10 -10 -9 -22 -16 -28 -16 -6 0 -13 -3 -16 -7 -2 -5 -2 -2 -1 5 2 6 -3
12 -11 12 -9 0 -15 -9 -15 -22 0 -21 0 -21 -14 -3 -8 11 -12 23 -10 27 3 5 0
8 -5 8 -6 0 -11 -8 -11 -18 0 -21 30 -52 49 -52 7 0 10 -4 7 -8 -2 -4 0 -14 5
-22 8 -12 9 -11 7 4 -4 28 15 30 31 4 13 -22 13 -22 -4 -8 -17 14 -17 13 -10
-10 7 -23 22 -39 35 -40 3 0 40 35 83 78 l78 78 -23 20 c-18 15 -20 16 -9 1z"/>
<path d="M4480 7112 c0 -9 -19 -12 -135 -24 -18 -2 -37 -13 -47 -28 -17 -25
-17 -25 29 -72 26 -27 51 -48 55 -48 8 0 41 32 128 125 19 21 28 35 20 33 -8
-3 -23 1 -32 10 -10 8 -18 10 -18 4z m-130 -62 c0 -5 -7 -10 -16 -10 -8 0 -12
-4 -9 -10 3 -5 2 -10 -3 -10 -16 0 -22 13 -11 27 13 15 39 18 39 3z m10 -50
c0 -5 -4 -10 -10 -10 -5 0 -10 5 -10 10 0 6 5 10 10 10 6 0 10 -4 10 -10z"/>
<path d="M4826 7113 c-4 -5 -24 -9 -44 -9 -38 -2 -134 -33 -140 -46 -2 -4 -11
-1 -19 8 -8 8 -17 13 -20 10 -8 -8 33 -42 45 -38 7 2 11 0 10 -5 -4 -13 62
-93 77 -93 18 0 157 148 152 162 -5 14 -10 14 -41 2 -14 -5 -17 -4 -12 4 8 13
3 16 -8 5z m-130 -110 c-7 -7 -26 7 -26 19 0 6 6 6 15 -2 9 -7 13 -15 11 -17z"/>
<path d="M4930 7096 c0 -2 8 -10 18 -17 15 -13 16 -12 3 4 -13 16 -21 21 -21
13z"/>
<path d="M4240 7080 c0 -3 10 -11 21 -19 19 -11 21 -11 16 2 -3 9 -1 18 6 20
7 2 0 4 -15 3 -16 0 -28 -3 -28 -6z"/>
<path d="M4810 6780 c0 -5 5 -10 10 -10 6 0 10 5 10 10 0 6 -4 10 -10 10 -5 0
-10 -4 -10 -10z"/>
<path d="M5210 6772 c0 -6 6 -12 13 -15 6 -2 9 -8 5 -12 -4 -4 -17 0 -30 9
-27 19 -39 20 -32 3 4 -10 -3 -12 -26 -9 -16 2 -36 -1 -44 -7 -7 -6 -30 -12
-51 -13 -27 -1 -32 -4 -21 -10 9 -5 16 -14 16 -21 0 -7 -4 -6 -10 3 -5 8 -12
11 -16 7 -10 -10 17 -39 32 -33 8 3 11 -2 9 -16 -6 -29 -13 -34 -21 -14 -8 22
-73 86 -87 86 -6 0 15 -26 46 -57 51 -51 57 -55 74 -42 17 13 17 13 4 -4 -12
-16 -12 -20 0 -32 12 -12 24 -4 84 54 99 96 99 95 75 116 -11 10 -20 13 -20 7z"/>
<path d="M4485 6761 c10 -16 -12 -21 -44 -10 -25 9 -34 8 -47 -5 -8 -9 -26
-16 -40 -16 -28 0 -31 -15 -6 -29 14 -9 13 -10 -10 -9 -20 2 -27 7 -23 18 3
10 -3 15 -20 16 -14 1 -25 -2 -25 -8 0 -5 -5 -6 -10 -3 -6 4 -7 12 -4 18 4 7
4 9 -1 5 -4 -4 -15 -2 -24 5 -14 10 -14 10 -4 -3 6 -8 33 -37 59 -64 43 -46
48 -48 60 -31 12 16 14 16 29 1 17 -16 10 -21 -22 -17 -22 3 -14 -15 12 -29
25 -13 28 -11 100 60 74 74 89 95 60 84 -8 -4 -15 -2 -15 4 0 5 -7 13 -16 16
-8 3 -12 2 -9 -3z"/>
<path d="M4060 6748 c-19 -5 -46 -12 -60 -15 -14 -3 -33 -15 -43 -26 -17 -20
-18 -20 -35 -3 -16 16 -16 17 1 10 10 -3 17 -1 17 5 0 6 -7 11 -15 11 -8 0
-15 5 -15 11 0 8 -5 8 -15 -1 -13 -11 -10 -17 21 -46 40 -38 46 -41 42 -18 -2
9 7 23 20 31 20 14 22 14 16 -1 -3 -9 -10 -16 -16 -16 -5 0 -6 -9 -3 -20 4
-13 2 -20 -7 -20 -10 0 -9 -3 2 -9 8 -6 18 -7 22 -5 4 3 5 -3 1 -12 -4 -11 -2
-15 4 -11 6 4 13 0 17 -8 3 -8 11 -15 18 -15 17 0 150 135 141 143 -3 4 0 7 7
7 7 0 10 3 7 6 -10 10 -88 11 -127 2z"/>
<path d="M4826 6752 c-4 -3 -24 -5 -45 -4 -22 2 -42 -2 -46 -8 -3 -5 -21 -10
-40 -10 -43 0 -51 -14 -25 -40 12 -12 22 -31 22 -43 2 -25 25 -57 42 -57 17 0
161 148 153 156 -9 10 -54 14 -61 6z"/>
<path d="M5536 6753 c-7 -7 -36 -11 -139 -17 -32 -2 -61 -7 -64 -10 -8 -7 17
-29 50 -43 15 -7 27 -20 27 -29 0 -13 -4 -11 -20 7 -10 13 -19 20 -20 14 0 -5
-18 9 -40 30 -22 21 -40 35 -40 30 0 -12 143 -145 156 -145 11 0 154 143 154
155 0 4 -7 4 -16 1 -9 -4 -22 -2 -29 4 -6 5 -15 7 -19 3z m-126 -43 c12 -8 11
-10 -7 -10 -12 0 -25 5 -28 10 -8 13 15 13 35 0z"/>
<path d="M4580 6744 c0 -5 16 -26 37 -45 23 -22 34 -27 30 -16 -4 10 -7 25 -7
34 0 10 -6 13 -16 9 -10 -4 -22 1 -30 11 -7 10 -14 13 -14 7z"/>
<path d="M6885 6442 c-13 -3 7 -12 54 -23 259 -65 475 -224 605 -446 41 -70
42 -73 20 -73 -27 0 -158 -47 -234 -84 l-72 -35 -71 52 c-285 210 -540 295
-852 284 -234 -7 -357 -41 -639 -174 -317 -149 -399 -172 -721 -204 -300 -29
-409 -24 -615 29 -205 53 -319 96 -531 198 -199 95 -304 127 -482 145 -388 39
-782 -94 -1058 -358 l-77 -74 -58 27 c-83 37 -193 74 -221 74 -13 0 -40 -7
-60 -15 -20 -8 -37 -14 -39 -13 -1 2 22 40 51 84 128 197 298 327 534 409 l66
24 -135 0 c-91 1 -155 -4 -195 -14 -233 -60 -383 -250 -425 -540 -6 -44 -10
-111 -8 -150 l3 -70 23 67 c25 72 42 94 42 56 0 -33 34 -85 70 -107 19 -11 60
-21 107 -25 42 -3 78 -8 81 -11 3 -2 -17 -48 -44 -100 -47 -94 -49 -96 -79
-91 -16 3 -135 17 -263 31 -256 29 -278 27 -324 -23 -14 -15 -36 -47 -48 -70
-12 -24 -24 -41 -28 -37 -4 4 -23 39 -42 78 -41 84 -75 111 -152 121 -29 4
-142 18 -250 32 -229 31 -256 28 -309 -25 -74 -74 -72 -188 5 -260 l26 -24 0
-649 c0 -572 -2 -649 -15 -654 -9 -4 -27 -26 -41 -51 -62 -105 -12 -238 101
-263 28 -6 356 30 503 55 40 7 100 59 118 102 29 68 9 162 -42 202 -24 19 -24
19 -24 245 l0 226 115 0 115 0 0 -203 c0 -196 -1 -205 -21 -223 -29 -25 -59
-91 -59 -129 0 -72 68 -158 133 -170 46 -9 504 43 538 61 41 21 77 63 85 99
10 46 11 46 61 15 58 -37 134 -66 198 -76 37 -5 72 -22 142 -71 212 -147 425
-214 746 -234 l162 -10 139 41 c77 23 187 59 245 82 527 204 823 249 1276 192
155 -20 292 -46 492 -95 145 -35 206 -55 439 -144 75 -29 181 -51 311 -66 82
-9 120 -9 223 5 262 36 480 115 665 241 l68 47 81 -7 c45 -4 189 -17 321 -30
154 -15 256 -20 284 -15 49 9 106 52 132 99 9 18 20 35 22 37 3 3 31 -20 63
-50 77 -74 212 -142 319 -161 127 -23 283 -30 346 -15 195 46 332 202 360 410
16 121 6 438 -16 510 -25 80 -61 146 -106 195 -21 23 -39 45 -39 48 0 4 15 13
33 20 62 27 117 101 131 179 4 20 2 67 -4 103 -32 201 -182 351 -385 384 -57
10 -96 9 -209 -4 -76 -9 -159 -23 -185 -32 -121 -41 -235 -118 -298 -203 -20
-27 -40 -47 -43 -42 -4 4 -14 28 -24 53 -23 63 -76 114 -133 129 -43 10 -131
8 -205 -6 -25 -5 -30 1 -73 84 -25 49 -66 118 -90 153 -50 72 -49 75 35 84 83
10 116 23 148 59 63 73 43 174 -43 216 -41 20 -44 25 -50 68 -41 307 -248 474
-610 495 -38 2 -79 2 -90 -1z m-3485 -483 c92 -13 237 -59 256 -80 23 -25 46
-237 48 -439 1 -156 0 -167 -22 -202 -25 -40 -79 -71 -152 -87 -63 -14 -223
-25 -252 -18 -68 18 -104 100 -157 367 -29 145 -36 250 -32 447 1 16 9 23 29
26 36 7 200 -2 282 -14z m3191 -14 c244 -45 237 -39 203 -168 -37 -138 -53
-174 -97 -213 l-40 -37 -86 6 c-108 7 -175 23 -198 49 -16 18 -18 43 -21 209
l-3 189 24 0 c13 0 111 -16 218 -35z m-297 8 c3 -10 6 -117 8 -238 2 -200 0
-226 -19 -283 -27 -81 -59 -128 -101 -148 -27 -13 -62 -15 -185 -12 -165 3
-197 13 -240 69 -23 32 -45 180 -49 339 l-3 105 103 51 c202 102 471 166 486
117z m-3265 -125 c6 -73 16 -185 23 -249 17 -171 3 -194 -134 -230 -92 -24
-145 -24 -186 1 -42 26 -44 25 -31 -6 15 -42 2 -40 -19 3 -26 49 -132 165
-187 203 -50 35 -61 64 -34 91 10 10 25 19 32 19 17 0 59 -38 97 -90 18 -25
30 -36 27 -25 -2 11 -18 69 -33 128 l-29 109 25 20 c60 49 234 120 360 146 82
18 76 26 89 -120z m3892 10 c44 -25 48 -34 18 -43 -22 -7 -69 28 -69 52 0 18
6 17 51 -9z m699 7 c37 -19 50 -43 50 -93 0 -49 -36 -89 -89 -97 -101 -15
-245 -50 -321 -80 -181 -69 -405 -201 -504 -295 -22 -22 -45 -40 -49 -40 -16
0 39 66 143 174 184 190 400 335 619 417 88 32 111 35 151 14z m-3779 -44
c205 -97 359 -134 796 -187 26 -3 47 -12 52 -22 5 -10 15 -112 22 -229 14
-236 11 -255 -46 -299 -87 -66 -399 -103 -586 -70 -165 30 -254 101 -288 231
-14 56 -67 625 -58 625 2 0 51 -22 108 -49z m-1343 -74 c2 -11 -9 -21 -31 -31
-19 -8 -40 -22 -46 -33 -10 -17 -10 -17 -11 2 0 22 59 87 75 82 5 -2 11 -11
13 -20z m3157 -154 c12 -284 -1 -358 -79 -435 -74 -74 -221 -120 -426 -134
-111 -7 -266 8 -309 31 -59 30 -63 45 -78 308 -8 132 -12 246 -9 254 4 10 32
13 108 13 219 0 490 43 659 104 52 18 101 34 110 35 15 1 18 -21 24 -176z
m-3639 142 c103 -34 242 -106 348 -179 84 -57 316 -268 316 -287 0 -4 -29 12
-65 37 -82 57 -232 132 -348 173 -97 34 -264 71 -322 71 -43 0 -90 22 -105 49
-13 25 -13 87 0 111 12 23 57 49 83 50 10 0 52 -11 93 -25z m4782 -181 c2 -12
-8 -34 -21 -50 -29 -35 -53 -80 -78 -148 l-19 -51 6 65 c7 87 40 183 68 202
19 13 41 4 44 -18z m-5978 -269 c102 -14 200 -28 218 -31 31 -5 37 -12 77 -97
115 -247 136 -289 144 -281 5 5 27 43 48 84 130 245 134 251 162 246 14 -3
100 -12 191 -21 214 -21 245 -27 245 -45 0 -8 -15 -22 -34 -31 -19 -9 -38 -25
-42 -35 -13 -32 -11 -1160 2 -1188 7 -14 23 -26 40 -30 20 -4 29 -11 29 -25 0
-23 0 -23 -240 -46 -85 -9 -164 -18 -175 -20 -43 -9 -58 36 -16 50 10 3 27 14
39 26 l22 20 -1 457 c-1 523 9 491 -96 293 l-62 -116 -115 -3 -115 -3 -32 68
c-18 37 -51 107 -74 154 l-42 86 -6 -315 c-8 -381 -8 -592 1 -652 6 -39 12
-47 45 -63 39 -18 45 -28 25 -44 -11 -8 -394 -64 -435 -63 -25 0 -12 31 27 69
l40 38 -2 723 -3 722 -22 16 c-12 10 -32 24 -44 33 -23 16 -21 49 3 49 7 0 96
-11 198 -25z m1575 6 c33 -5 76 -15 95 -23 35 -15 34 -15 -50 -16 -47 -1 -107
-8 -133 -16 -60 -18 -79 -12 -75 22 5 39 52 49 163 33z m6387 -42 c52 -14 128
-68 159 -114 35 -51 63 -148 55 -190 -4 -18 -14 -40 -24 -49 -14 -12 -248 -96
-269 -96 -1 0 -3 30 -3 68 0 47 -5 75 -17 91 -16 23 -19 24 -120 17 -57 -3
-112 -10 -122 -16 -22 -11 -43 -64 -35 -85 4 -8 100 -63 216 -122 233 -118
287 -159 333 -250 l30 -58 3 -235 c4 -283 -4 -322 -80 -405 -85 -93 -174 -116
-359 -91 -174 23 -276 68 -355 159 -68 78 -84 127 -84 258 0 100 3 118 18 132
16 14 117 41 240 64 l32 6 0 -141 c0 -77 3 -148 6 -157 11 -28 56 -43 155 -50
90 -7 98 -6 118 14 20 20 21 31 21 199 0 158 -2 181 -17 194 -10 8 -119 68
-242 133 -248 131 -289 163 -317 248 -48 142 14 301 155 395 70 47 136 68 266
86 101 15 169 13 237 -5z m-940 -96 c16 -18 98 -253 98 -279 0 -23 -32 -16
-63 14 l-29 27 -171 -3 c-94 -2 -175 -6 -179 -8 -8 -5 -11 -167 -4 -175 3 -2
33 -2 68 1 57 5 64 8 76 33 17 34 39 45 57 26 11 -12 125 -334 125 -353 0 -17
-47 -2 -77 24 -33 30 -35 30 -148 30 l-115 0 0 -209 c0 -116 4 -212 8 -215 5
-3 74 -10 155 -16 180 -13 206 -8 280 60 47 43 87 63 87 45 0 -16 -104 -314
-116 -332 -18 -28 -46 -29 -264 -7 -230 22 -472 44 -497 44 -32 0 -31 36 1 44
58 15 56 -10 56 574 0 588 1 577 -58 584 -35 4 -43 35 -10 43 13 2 131 14 263
26 132 11 272 24 310 29 114 12 131 11 147 -7z m-5622 -23 c226 -19 230 -20
230 -40 0 -11 -10 -20 -27 -25 -55 -13 -53 7 -53 -491 l0 -464 25 -16 c20 -13
42 -15 132 -9 60 3 120 9 136 11 59 12 57 -4 57 474 l0 439 -26 20 c-15 12
-33 21 -40 21 -8 0 -14 9 -14 20 0 18 6 20 53 19 98 -1 396 -24 402 -31 12
-12 -3 -38 -21 -38 -10 0 -26 -7 -36 -17 -17 -15 -18 -43 -19 -442 -1 -440 -1
-449 -43 -518 -18 -30 -36 -41 -145 -92 -19 -9 -44 -26 -55 -38 -28 -30 -136
-45 -332 -47 l-151 -1 -68 35 c-76 38 -127 94 -145 158 -6 23 -10 213 -10 504
0 273 -4 477 -10 492 -5 14 -23 32 -40 41 -19 10 -30 23 -30 36 0 20 4 21 53
15 28 -3 108 -10 177 -16z m4803 -44 c6 -16 -11 -36 -30 -36 -7 0 -22 -9 -33
-20 -20 -20 -20 -33 -20 -555 l0 -535 40 -20 c42 -21 50 -37 26 -46 -8 -3 -63
-1 -123 5 -59 5 -157 13 -216 17 -90 5 -107 9 -105 22 2 8 19 21 38 27 l35 12
3 512 c1 318 -2 519 -8 530 -5 10 -23 21 -40 24 -30 7 -42 33 -17 42 10 4 317
28 418 34 15 0 29 -5 32 -13z m-3643 -43 c11 -10 -42 -42 -78 -48 -53 -9 -140
34 -116 58 6 6 186 -3 194 -10z m3094 9 c7 -12 -7 -29 -31 -36 -55 -17 -53 3
-53 -535 0 -462 1 -499 18 -513 9 -9 27 -19 40 -22 12 -4 22 -14 22 -22 0 -19
-38 -18 -140 7 -47 11 -90 20 -96 21 -7 1 -9 19 -6 48 3 34 0 51 -12 63 -20
20 -79 37 -103 31 -17 -5 -18 7 -15 190 l3 196 -45 0 c-25 1 -86 1 -136 1 -49
0 -108 0 -130 -1 l-40 0 0 -240 0 -240 40 -20 c23 -12 38 -25 34 -31 -9 -15
-122 -4 -143 14 -31 28 -90 39 -164 32 l-72 -6 3 468 c1 257 0 478 -3 490 -3
12 -18 25 -35 31 -73 26 -19 42 145 43 186 1 193 -6 197 -196 l3 -140 33 1
c17 1 93 2 167 3 l136 1 -3 148 -3 147 -37 9 c-27 7 -38 15 -38 28 0 15 9 18
48 19 26 1 101 5 167 9 184 10 243 11 249 2z m-2744 -287 c101 -152 188 -279
192 -281 5 -3 8 102 8 234 -1 258 -3 264 -55 274 -23 4 -28 34 -5 31 8 -1 49
-14 90 -29 41 -14 116 -31 166 -37 l92 -10 7 -35 c3 -19 3 -189 -1 -377 l-7
-343 -36 10 c-20 6 -49 11 -66 12 -33 2 -40 16 -50 96 -6 48 -20 79 -31 68 -3
-4 -1 -44 5 -89 6 -45 11 -110 11 -144 0 -56 -3 -64 -30 -88 -35 -31 -61 -34
-91 -9 -20 17 -144 191 -284 399 -38 57 -71 100 -74 97 -3 -3 -7 -58 -7 -122
-1 -65 -2 -130 -3 -146 l-1 -29 -20 26 c-11 14 -20 34 -20 46 0 22 -82 85
-102 79 -6 -2 10 -17 35 -34 26 -16 50 -38 53 -49 3 -11 11 -33 19 -50 25 -57
38 -130 39 -218 1 -65 4 -86 14 -82 14 5 14 3 6 -19 -3 -9 -13 -16 -21 -16 -9
0 -11 5 -7 13 5 8 2 7 -9 -2 -14 -11 -43 -13 -144 -7 -123 6 -160 16 -145 40
4 6 9 234 12 506 l5 495 45 9 c26 6 52 19 62 32 15 18 28 22 91 23 l74 1 183
-275z m2104 256 c7 -10 -8 -22 -45 -38 -24 -10 -30 -8 -55 18 l-28 29 62 0
c33 0 63 -4 66 -9z m-980 -26 c27 -8 102 -18 165 -22 122 -7 155 -18 213 -71
34 -31 63 -103 54 -135 -3 -14 -18 -29 -33 -35 -24 -10 -233 -52 -255 -52 -5
0 -8 24 -8 54 0 75 -17 86 -131 86 -55 0 -100 6 -123 15 -21 9 -58 14 -88 13
l-52 -3 -12 65 c-6 36 -11 66 -10 67 1 1 27 9 57 17 71 19 162 19 223 1z
m-287 -118 l6 -55 61 -1 c95 0 91 1 73 -19 -15 -16 -17 -49 -18 -243 0 -146
-4 -236 -12 -258 -8 -23 -37 -56 -84 -95 -39 -34 -72 -68 -72 -76 -2 -24 -99
-19 -117 5 -20 28 -20 661 0 708 15 36 57 77 101 100 40 21 54 6 62 -66z
m3439 -209 c33 -64 124 -156 182 -182 23 -10 42 -22 42 -26 0 -4 -21 -11 -47
-15 -77 -11 -148 -48 -180 -94 -15 -22 -36 -40 -46 -41 -30 0 -90 -36 -125
-74 -33 -35 -35 -36 -113 -36 l-79 0 -1 28 c-2 44 0 95 5 100 3 2 17 -5 33
-16 99 -69 225 -44 273 54 28 57 25 84 -20 219 -22 65 -40 120 -40 121 0 2 17
5 38 7 20 2 40 4 44 5 4 1 20 -22 34 -50z m-2718 -449 c4 -74 -30 -144 -70
-144 -18 1 -24 -3 -18 -9 22 -22 8 -26 -21 -5 -29 20 -46 23 -203 27 -189 5
-225 -3 -248 -53 -6 -14 -16 -25 -21 -25 -5 0 -7 -9 -4 -21 3 -13 1 -19 -6
-16 -7 2 -12 13 -11 25 0 12 -3 19 -8 16 -4 -3 -8 -1 -8 5 0 5 -17 26 -37 47
-36 35 -36 36 -8 20 l30 -17 -24 20 c-12 12 -27 18 -32 15 -10 -6 -39 19 -39
34 0 10 109 102 120 102 3 0 6 -15 7 -33 4 -56 30 -67 152 -67 113 0 151 12
151 49 0 30 32 48 105 60 39 6 93 15 120 20 28 5 55 8 60 7 6 -2 11 -27 13
-57z m-1722 -5 c-4 -9 -9 -15 -11 -12 -3 3 -3 13 1 22 4 9 9 15 11 12 3 -3 3
-13 -1 -22z m626 -50 c16 -8 28 -23 28 -34 0 -15 -9 -21 -42 -27 -24 -4 -46
-6 -50 -5 -5 1 -8 -5 -8 -13 0 -9 -6 -12 -17 -8 -15 5 -16 3 -5 -8 14 -16 16
-33 2 -24 -5 3 -10 4 -10 1 0 -2 -3 -13 -6 -23 -4 -13 -3 -14 3 -5 7 9 10 4
10 -17 l0 -29 -31 21 c-17 12 -33 23 -35 24 -2 1 6 14 18 29 15 19 21 41 21
80 0 33 5 54 13 57 18 7 78 -3 109 -19z m386 -131 c19 -10 44 -29 54 -43 23
-32 46 -136 33 -149 -6 -5 -121 -20 -256 -33 l-246 -23 -17 71 c-20 87 -21
144 -2 170 12 16 31 20 123 25 159 10 268 3 311 -18z m527 -12 c42 -5 53 -11
72 -40 36 -54 25 -181 -15 -181 -48 1 -434 29 -437 32 -9 10 18 137 34 158 33
45 56 51 181 44 63 -4 137 -10 165 -13z m1080 9 c11 -18 -15 -40 -39 -34 -19
4 -68 -3 -141 -22 l-20 -5 20 13 c70 45 166 71 180 48z m-2155 -82 c18 -13 42
-34 52 -48 24 -32 28 -104 7 -125 -14 -14 -484 -185 -508 -185 -17 0 -14 166
4 233 18 70 39 104 80 128 26 16 52 19 181 19 140 0 153 -2 184 -22z m-875
-18 l30 -8 -35 -1 c-58 -2 -181 -40 -246 -76 -56 -32 -62 -33 -82 -19 -49 34
-17 76 74 98 63 15 209 19 259 6z m2504 -24 c39 -37 67 -97 76 -158 5 -42 4
-48 -12 -48 -10 0 -123 21 -251 47 l-233 47 7 31 c7 32 36 70 68 87 26 14 146
27 238 25 70 -2 79 -5 107 -31z m606 -10 c97 -27 208 -86 219 -118 23 -67 -64
-107 -115 -52 -59 63 -206 137 -344 175 l-70 19 125 -4 c71 -3 151 -11 185
-20z m-2954 -27 c-84 -24 -157 -60 -212 -104 -53 -42 -85 -45 -101 -9 -11 24
-9 29 14 49 51 44 189 80 318 82 l45 1 -64 -19z m154 -43 c49 -21 57 -45 53
-148 -2 -69 -7 -92 -20 -102 -22 -16 -276 -52 -287 -40 -13 13 -61 171 -61
199 0 14 13 39 29 57 27 30 34 33 112 39 135 10 138 10 174 -5z m2594 4 c30
-15 72 -123 78 -200 6 -66 5 -70 -15 -70 -30 0 -175 47 -255 83 -71 31 -82 46
-75 103 4 35 29 48 140 74 100 22 105 23 127 10z m214 -113 c19 -13 67 -135
67 -169 0 -19 -4 -20 -57 -13 -32 3 -65 13 -73 21 -19 18 -27 139 -10 159 15
18 50 19 73 2z m-3155 -36 c8 -12 15 -47 16 -79 l1 -57 -89 2 c-49 1 -94 7
-100 13 -16 16 41 125 73 137 40 16 83 9 99 -16z"/>
<path d="M5586 4911 l-40 -46 44 42 c24 23 42 44 40 46 -3 2 -23 -17 -44 -42z"/>
<path d="M6203 4175 c-7 -21 -10 -41 -8 -43 7 -7 26 50 23 67 -2 9 -9 -2 -15
-24z"/>
<path d="M6150 4105 c-20 -24 -6 -28 15 -5 10 11 13 20 8 20 -6 0 -16 -7 -23
-15z"/>
<path d="M3325 4410 c3 -5 13 -10 21 -10 8 0 12 5 9 10 -3 6 -13 10 -21 10 -8
0 -12 -4 -9 -10z"/>
<path d="M4710 4039 c0 -5 5 -7 10 -4 6 3 10 8 10 11 0 2 -4 4 -10 4 -5 0 -10
-5 -10 -11z"/>
<path d="M3777 6394 c5 -14 3 -15 -15 -5 -31 17 -54 13 -87 -13 -27 -22 -31
-23 -47 -9 -11 10 -18 12 -18 5 0 -7 5 -12 12 -12 17 0 4 -10 -20 -15 -15 -2
-19 0 -15 11 3 8 1 14 -5 14 -21 0 -18 -25 6 -52 14 -15 30 -28 35 -28 5 0 -1
9 -14 20 l-24 20 38 -17 c21 -10 36 -22 33 -29 -3 -8 7 -15 25 -19 26 -6 36 0
94 56 36 34 65 66 65 70 0 4 -7 10 -16 13 -14 5 -15 4 -4 -9 7 -8 8 -15 2 -15
-5 0 -15 7 -22 15 -17 20 -31 19 -23 -1z"/>
<path d="M5860 6399 c12 -8 9 -9 -11 -5 -18 4 -37 -2 -62 -18 -19 -13 -38 -22
-41 -19 -2 3 -9 2 -15 -2 -12 -7 12 -50 44 -77 11 -10 16 -17 10 -17 -10 -1
-38 29 -74 78 -10 13 -23 21 -29 17 -7 -4 12 -30 48 -69 l59 -62 53 50 c67 65
108 108 108 117 0 4 -5 10 -12 14 -6 4 -8 3 -4 -4 3 -6 2 -13 -4 -17 -5 -3
-10 -2 -10 3 0 6 -8 8 -19 5 -10 -3 -22 0 -25 6 -4 6 -13 11 -19 11 -7 0 -6
-4 3 -11z"/>
<path d="M3547 6383 c-4 -3 -7 -11 -7 -17 0 -6 5 -5 12 2 6 6 9 14 7 17 -3 3
-9 2 -12 -2z"/>
<path d="M5650 6370 c0 -5 5 -10 10 -10 6 0 10 5 10 10 0 6 -4 10 -10 10 -5 0
-10 -4 -10 -10z"/>
<path d="M4581 6265 c3 -2 63 -14 135 -26 171 -29 381 -31 472 -5 34 11 65 23
68 27 3 5 -148 9 -337 9 -188 0 -340 -2 -338 -5z"/>
<path d="M4055 6202 c16 -18 213 -115 313 -155 338 -135 680 -140 937 -12 82
41 208 125 200 133 -2 2 -44 -10 -94 -27 -271 -91 -584 -103 -944 -36 -113 21
-337 77 -402 101 -14 5 -17 4 -10 -4z"/>
<path d="M4650 3475 c13 -14 29 -25 37 -25 7 0 13 -6 13 -13 0 -14 38 -54 43
-46 1 2 25 28 52 57 l50 53 -87 -2 c-72 -2 -85 -5 -76 -16 6 -8 17 -12 25 -9
7 3 13 1 13 -4 0 -17 -30 -11 -52 10 -31 29 -46 25 -18 -5z"/>
<path d="M4373 3476 c-28 -6 -54 -14 -57 -17 -3 -3 11 -20 33 -37 l38 -31 49
50 48 49 -29 -1 c-17 -1 -53 -7 -82 -13z m-8 -25 c-3 -5 -1 -12 5 -16 5 -3 10
-10 10 -15 0 -6 -9 -2 -19 7 -20 16 -19 33 0 33 6 0 8 -4 4 -9z"/>
<path d="M5044 3433 l45 -46 30 34 c35 40 32 42 -62 53 l-58 6 45 -47z"/>
<path d="M5120 3321 c0 -6 4 -13 10 -16 6 -3 7 1 4 9 -7 18 -14 21 -14 7z"/>
<path d="M5490 3300 c0 -5 5 -10 11 -10 5 0 7 5 4 10 -3 6 -8 10 -11 10 -2 0
-4 -4 -4 -10z"/>
<path d="M3718 3253 c7 -3 16 -2 19 1 4 3 -2 6 -13 5 -11 0 -14 -3 -6 -6z"/>
<path d="M5845 3250 c11 -5 29 -12 40 -16 17 -6 18 -8 3 -11 -9 -2 -25 0 -36
6 -14 8 -22 5 -35 -10 -16 -18 -41 -24 -76 -19 -12 1 -11 -3 2 -23 15 -24 15
-25 -5 -30 -13 -4 -33 2 -50 14 -15 11 -28 17 -28 13 0 -9 122 -134 130 -134
7 0 113 101 144 137 17 20 17 24 3 38 -18 18 -80 45 -99 44 -7 0 -4 -4 7 -9z
m83 -48 c2 -7 -1 -12 -8 -12 -6 0 -8 5 -4 11 4 8 -1 9 -17 4 -19 -5 -21 -4 -9
4 18 12 32 10 38 -7z m-174 -84 c-3 -4 -12 -8 -20 -8 -8 0 -14 4 -14 8 0 4 9
8 19 8 11 0 17 -4 15 -8z m14 -43 c-3 -3 -9 2 -12 12 -6 14 -5 15 5 6 7 -7 10
-15 7 -18z"/>
<path d="M3591 3221 c-11 -7 -11 -9 0 -14 10 -4 9 -6 -3 -6 -19 -1 -26 -21 -7
-21 5 0 7 -5 3 -12 -5 -8 -11 -6 -20 7 -7 9 -18 15 -24 13 -6 -2 12 -28 41
-58 31 -33 53 -50 56 -42 3 6 9 9 15 6 7 -4 7 -9 0 -13 -7 -4 -5 -14 6 -29
l17 -22 85 86 c47 47 78 84 70 81 -8 -2 -23 2 -32 11 -12 10 -22 12 -30 5 -7
-5 -35 -9 -63 -8 -79 3 -87 4 -80 15 8 12 -15 13 -34 1z m59 -36 c7 -8 8 -15
2 -15 -5 0 -15 7 -22 15 -7 8 -8 15 -2 15 5 0 15 -7 22 -15z m-46 -29 c-6 -15
-24 -23 -24 -11 0 8 24 34 28 30 1 -1 0 -10 -4 -19z m51 -26 c3 -5 1 -10 -4
-10 -6 0 -11 5 -11 10 0 6 2 10 4 10 3 0 8 -4 11 -10z"/>
<path d="M4085 3213 c-21 -7 -52 -15 -67 -17 -15 -2 -34 -9 -42 -15 -7 -6 -22
-8 -32 -4 -17 6 -17 5 -5 -10 24 -30 -8 -20 -40 12 -16 16 -29 26 -29 22 0 -4
36 -43 81 -86 l80 -78 79 78 c43 43 76 83 73 88 -3 5 -9 3 -14 -4 -7 -12 -9
-12 -9 -1 0 10 -9 12 -32 7 -31 -7 -32 -6 -13 9 23 18 22 18 -30 -1z m-89 -60
c-10 -10 -19 5 -10 18 6 11 8 11 12 0 2 -7 1 -15 -2 -18z m-21 -33 c3 -5 1
-10 -4 -10 -6 0 -11 5 -11 10 0 6 2 10 4 10 3 0 8 -4 11 -10z"/>
<path d="M5526 3215 c-3 -10 -19 -15 -44 -15 -21 0 -47 -6 -58 -14 -13 -10
-23 -11 -31 -4 -19 15 -53 0 -46 -20 6 -15 3 -14 -15 2 -32 28 -37 14 -6 -15
16 -14 28 -19 31 -13 2 6 15 9 30 6 l26 -5 -27 -11 -27 -11 41 -40 40 -39 80
79 c44 44 80 84 80 88 0 5 -8 3 -17 -4 -15 -12 -16 -12 -10 4 4 11 3 16 -4 12
-5 -4 -16 -2 -23 4 -10 9 -15 8 -20 -4z m27 -19 c4 -10 1 -13 -9 -9 -7 3 -14
9 -14 14 0 14 17 10 23 -5z m-103 -96 c0 -5 -7 -7 -15 -4 -8 4 -15 1 -15 -5 0
-6 -4 -11 -10 -11 -5 0 -10 7 -10 15 0 9 9 15 25 15 14 0 25 -4 25 -10z"/>
<path d="M4468 3209 c-9 -5 -25 -8 -35 -7 -10 2 -39 -4 -65 -12 -35 -10 -48
-20 -53 -38 l-6 -25 -35 34 c-18 18 -34 29 -34 23 0 -5 31 -41 70 -79 l69 -69
27 25 c49 43 134 133 134 140 0 4 -7 10 -16 13 -8 3 -12 2 -9 -4 8 -13 -8 -13
-20 -1 -6 6 -16 6 -27 0z m-97 -132 c12 -22 12 -22 -10 -3 -11 11 -21 23 -21
28 0 14 19 -1 31 -25z"/>
<path d="M4758 3197 c-27 -5 -48 -13 -48 -18 0 -4 -12 -8 -27 -7 -16 1 -37 -2
-47 -7 -16 -7 -18 -5 -13 8 4 11 2 14 -9 10 -19 -7 -19 -8 21 -50 19 -20 38
-33 42 -28 5 4 2 10 -4 12 -7 3 -13 12 -13 21 1 15 3 14 15 -2 9 -11 12 -29 9
-39 -5 -15 -3 -19 9 -14 11 4 14 2 11 -8 -3 -7 4 -19 17 -25 21 -12 28 -7 96
62 77 80 91 104 48 88 -15 -6 -25 -6 -25 0 0 10 -15 9 -82 -3z"/>
<path d="M5107 3202 c-20 -2 -27 -8 -23 -17 6 -16 -10 -30 -18 -17 -7 12 -68
13 -86 2 -13 -8 -10 -14 15 -37 16 -16 33 -27 37 -26 4 2 5 -4 2 -12 -4 -9 0
-15 8 -15 8 0 21 -11 28 -25 l14 -26 82 82 c46 46 80 87 77 92 -3 5 -9 3 -13
-4 -6 -9 -12 -10 -22 -2 -13 10 -45 12 -101 5z m-97 -42 c0 -5 -2 -10 -4 -10
-3 0 -8 5 -11 10 -3 6 -1 10 4 10 6 0 11 -4 11 -10z m50 -9 c0 -5 -7 -14 -15
-21 -16 -14 -18 -10 -9 14 6 17 24 22 24 7z"/>
<path d="M4936 3185 c4 -8 11 -15 16 -15 6 0 5 6 -2 15 -7 8 -14 15 -16 15 -2
0 -1 -7 2 -15z"/>
<path d="M4280 3185 c0 -18 19 -40 26 -32 4 4 0 15 -9 24 -9 10 -17 13 -17 8z"/>
<path d="M5710 3165 c0 -9 5 -15 11 -13 6 2 11 8 11 13 0 5 -5 11 -11 13 -6 2
-11 -4 -11 -13z"/>
<path d="M4116 2894 c-8 -22 -4 -25 11 -9 7 8 9 16 4 19 -5 3 -12 -1 -15 -10z"/>
<path d="M5190 2896 c0 -2 8 -10 18 -17 15 -13 16 -12 3 4 -13 16 -21 21 -21
13z"/>
<path d="M5531 2897 c2 -1 13 -9 24 -17 19 -14 19 -14 6 3 -7 9 -18 17 -24 17
-6 0 -8 -1 -6 -3z"/>
<path d="M4482 2859 c4 -11 -3 -13 -32 -11 -22 2 -51 -3 -70 -13 -17 -9 -45
-17 -60 -17 -16 -1 -27 -5 -24 -10 3 -4 -1 -8 -8 -8 -7 0 -19 9 -26 20 -7 11
-17 20 -24 20 -6 0 25 -36 68 -80 l79 -79 77 77 c43 42 77 84 77 92 0 11 -2
11 -6 2 -4 -10 -10 -9 -31 4 -19 12 -24 13 -20 3z m-167 -69 c-3 -5 -12 -10
-18 -10 -7 0 -6 4 3 10 19 12 23 12 15 0z m45 -40 c0 -6 -9 -5 -20 2 -11 7
-20 16 -20 21 0 4 9 3 20 -3 11 -6 20 -15 20 -20z"/>
<path d="M4844 2862 c4 -7 -10 -10 -40 -10 -29 0 -65 -10 -100 -27 -50 -24
-82 -26 -69 -4 4 5 2 9 -4 9 -5 0 -13 -4 -16 -10 -3 -5 -1 -10 5 -10 6 0 9 -4
6 -8 -7 -12 88 -104 98 -95 4 5 7 3 6 -2 -7 -31 8 -22 80 50 79 79 95 100 65
88 -10 -3 -15 -1 -13 7 2 7 -3 15 -11 18 -8 2 -11 0 -7 -6z m-126 -80 c2 -7
-2 -10 -12 -6 -9 3 -16 11 -16 16 0 13 23 5 28 -10z m-25 -13 c28 -32 10 -37
-21 -6 -18 19 -22 27 -11 27 8 0 23 -9 32 -21z"/>
<path d="M5535 2857 c4 -8 -10 -12 -49 -13 -55 0 -86 -15 -86 -40 0 -8 7 -14
16 -14 8 0 12 -5 9 -10 -5 -8 -11 -8 -19 -1 -9 7 -16 7 -24 -1 -6 -6 -15 -8
-19 -4 -5 4 0 14 10 21 18 13 17 15 -14 30 -28 15 -31 15 -26 2 3 -9 1 -17 -5
-19 -6 -2 18 -32 53 -67 l63 -63 79 81 c44 45 76 85 72 91 -5 8 -12 5 -22 -7
-8 -10 -12 -13 -9 -8 2 6 -4 16 -14 23 -15 9 -18 9 -15 -1z m-121 -102 c11 -8
16 -15 10 -15 -5 0 -2 -5 6 -10 8 -5 10 -10 4 -10 -6 0 -21 11 -34 25 -26 27
-17 33 14 10z"/>
<path d="M4067 2852 c-10 -2 -30 -10 -44 -17 -15 -8 -30 -12 -35 -9 -5 3 -15
0 -23 -6 -8 -7 -15 -9 -15 -4 0 5 -4 2 -10 -6 -7 -12 -12 -12 -29 4 -45 40
-18 5 49 -65 l70 -73 81 82 c51 53 77 87 72 95 -5 8 -9 6 -11 -7 -3 -13 -6
-15 -12 -6 -7 12 -59 18 -93 12z m-72 -82 c-3 -5 -1 -20 6 -32 6 -13 -5 -5
-24 17 -20 22 -34 42 -31 44 2 3 11 -4 18 -15 8 -11 18 -15 23 -10 4 5 2 11
-5 13 -6 3 -9 9 -6 15 4 7 10 4 16 -6 5 -9 6 -21 3 -26z"/>
<path d="M5134 2848 c-3 -4 -10 -6 -15 -2 -6 3 -28 -7 -50 -22 -26 -17 -43
-24 -47 -17 -6 9 -72 24 -72 16 0 -1 31 -35 68 -74 l68 -71 82 82 c70 70 89
100 66 100 -3 0 -2 -4 1 -10 7 -11 -8 -14 -19 -3 -10 11 -76 11 -82 1z m-74
-67 c0 -6 -5 -13 -10 -16 -6 -4 -8 -11 -5 -16 4 -5 2 -9 -3 -9 -5 0 -9 11 -9
25 0 15 5 25 13 25 8 0 14 -4 14 -9z"/>
<path d="M5300 2820 c0 -5 5 -10 10 -10 6 0 10 5 10 10 0 6 -4 10 -10 10 -5 0
-10 -4 -10 -10z"/>
<path d="M4467 2507 c-3 -9 -16 -12 -34 -10 -17 3 -46 -5 -74 -20 -33 -18 -50
-22 -57 -15 -13 13 -42 3 -42 -13 0 -8 4 -9 13 0 19 15 30 1 14 -17 -10 -13
-9 -15 6 -9 12 4 16 3 11 -4 -6 -11 62 -89 79 -89 10 0 157 152 157 163 0 12
-18 8 -24 -5 -5 -10 -7 -10 -12 -1 -3 7 -12 9 -20 6 -10 -4 -12 0 -8 11 3 9 4
16 1 16 -3 0 -7 -6 -10 -13z m-117 -67 c0 -5 -5 -10 -11 -10 -5 0 -7 5 -4 10
3 6 8 10 11 10 2 0 4 -4 4 -10z m29 -57 c1 -1 0 -7 -4 -13 -4 -7 -13 -4 -26
11 -26 30 -24 46 4 23 12 -10 24 -20 26 -21z"/>
<path d="M5150 2506 c0 -10 -8 -15 -22 -15 -13 1 -50 -8 -83 -19 -60 -19 -101
-20 -73 0 10 8 9 9 -3 5 -9 -3 -22 0 -30 6 -7 7 0 -5 17 -25 30 -38 51 -49 40
-23 -3 8 -1 15 3 15 14 0 21 -28 9 -32 -11 -4 66 -88 80 -88 4 0 42 35 85 78
70 71 87 99 52 86 -7 -3 -16 0 -20 5 -3 6 -11 9 -16 5 -5 -3 -16 0 -24 6 -12
10 -15 9 -15 -4z m-95 -125 c-6 -5 -25 10 -25 20 0 5 6 4 14 -3 8 -7 12 -15
11 -17z"/>
<path d="M4725 2475 c-29 -20 -35 -22 -35 -8 0 12 -3 13 -14 4 -11 -9 -20 -10
-36 -1 -19 10 -20 10 -12 -7 5 -10 7 -24 5 -31 -3 -7 -1 -11 4 -10 6 2 22 -12
38 -30 26 -31 28 -32 42 -15 13 16 13 16 3 -6 -14 -27 3 -45 29 -31 20 10 141
137 141 147 0 5 -29 9 -65 10 -53 1 -70 -2 -100 -22z"/>
<path d="M4597 2484 c-9 -9 11 -44 25 -44 6 0 4 8 -5 18 -10 10 -14 22 -10 25
3 4 4 7 1 7 -2 0 -8 -3 -11 -6z"/>
<path d="M4795 2139 c-79 -9 -105 -23 -103 -56 1 -15 7 -31 12 -35 6 -4 8 -10
4 -13 -3 -4 -16 3 -27 14 -17 17 -18 21 -6 21 13 0 14 4 4 22 -11 20 -13 20
-24 5 -10 -14 -14 -15 -18 -4 -3 8 -15 17 -27 20 -15 4 3 -19 52 -68 l73 -74
82 81 c45 45 80 84 78 87 -7 7 -43 7 -100 0z"/>
</g>
</svg>
